<svg width="78" height="43" viewBox="0 0 78 43" fill="none" xmlns="http://www.w3.org/2000/svg">
<g clip-path="url(#clip0_576_835)">
<path d="M3.72537e-05 20.7651C5.25165e-05 20.6743 0.00616367 20.5837 0.0183249 20.4937C0.628135 15.9202 3.67715 10.9076 7.49453 8.34644C11.6229 5.57183 16.5196 4.21197 21.3188 3.02285C23.7925 2.41305 26.2785 1.85915 28.7767 1.36114C30.6061 0.995257 32.5392 0.662913 34.3503 1.15076C35.3138 1.40992 36.201 1.88862 37.1157 2.28804C42.6833 4.70286 49.0984 3.98939 54.9495 2.39781C56.5532 1.95875 58.1448 1.46176 59.7791 1.14771C66.4869 -0.138978 71.8044 -0.422535 76.8536 4.21502C77.4241 4.7285 77.8197 5.40764 77.9848 6.15725C78.1952 7.56284 76.9725 8.65135 76.2682 8.75501L53.2298 12.0906C52.5631 12.1776 51.9503 12.5025 51.5041 13.0053C50.3942 14.2951 51.3059 15.6305 51.7693 16.9142C52.809 19.7925 51.2632 23.3568 48.4642 24.5367C49.5679 27.851 47.6775 31.8757 44.4395 33.1167C43.9974 33.2844 43.4821 33.4582 43.3053 33.9003C43.218 34.1989 43.218 34.5163 43.3053 34.815C43.7016 36.8426 43.6925 39.1537 42.3631 40.724C40.43 43.0077 36.9023 42.5961 33.9661 42.1052C30.0952 41.4596 26.1916 41.028 22.2731 40.8124C19.1082 40.6386 15.8885 40.599 12.8577 39.6538C5.11629 37.2572 0.0488192 28.9487 3.72537e-05 20.7651Z" fill="black"/>
<path d="M62.5475 4.50468C62.1939 4.91934 62.4347 5.63891 62.6543 6.09322C62.8738 6.54752 63.1787 7.00792 63.1177 7.52016C63.0659 7.97751 62.7427 8.49584 63.0201 8.84648C63.2366 9.12089 63.6787 9.0904 64.0477 9.03552L65.7551 8.78245L72.1398 7.8403C73.0545 7.7031 74.1613 7.43783 74.5088 6.5963C74.6023 6.34161 74.6233 6.06598 74.5695 5.80006C74.5156 5.53415 74.3891 5.28838 74.2039 5.09009C73.818 4.70279 73.3502 4.4069 72.8349 4.22417C70.7987 3.3699 68.6095 2.94036 66.4015 2.96188C64.9776 2.96187 63.3098 3.29422 62.5567 4.50468" fill="white"/>
<path d="M40.5032 34.1167C40.2256 34.0063 39.9299 33.9484 39.6312 33.946C39.4817 33.9482 39.3355 33.9897 39.2071 34.0662C39.0786 34.1427 38.9726 34.2516 38.8994 34.382C38.8177 34.6801 38.8052 34.993 38.8628 35.2967C38.8811 36.0711 38.4085 36.7541 38.2226 37.5042C38.1555 37.7196 38.1555 37.9504 38.2226 38.1658C38.2859 38.3226 38.3914 38.4587 38.5275 38.5591C38.7931 38.7525 39.1175 38.8479 39.4455 38.829C39.7734 38.8101 40.0847 38.6781 40.3264 38.4555C40.4724 38.3041 40.5975 38.1339 40.6984 37.9493C41.0823 37.3063 41.3767 36.6139 41.5734 35.8913C41.6788 35.5975 41.6936 35.2789 41.6161 34.9765C41.4576 34.5253 40.9758 34.2966 40.5398 34.1167" fill="white"/>
<path d="M24.539 8.82819C24.6187 8.85932 24.7034 8.87584 24.789 8.87697C27.7683 8.89777 30.7442 8.67136 33.686 8.20009C36.2289 7.75493 38.7718 7.11159 41.1348 5.86759C41.5982 5.62062 42.1166 5.34926 42.5831 5.78832C42.8092 6.02437 42.9535 6.32687 42.9947 6.65119C43.138 7.52321 42.83 8.35559 42.8422 9.21237C42.8544 10.0691 43.1959 10.9015 43.0648 11.7949C43.0286 12.142 42.8722 12.4655 42.6227 12.7096C41.8848 13.356 40.9854 12.4779 40.1652 12.0784C39.345 11.679 38.3602 11.7735 37.4485 11.9107L27.4965 13.3163C26.7343 13.4231 25.9476 13.5389 25.2738 13.9932C24.8805 14.2585 24.4902 14.6488 24.0542 14.5847C23.3803 14.4902 23.1151 13.4505 23.1822 12.6242C23.2492 11.7979 23.4871 10.932 23.234 10.185C23.1242 9.86181 22.9291 9.5752 23.109 9.16053C23.1913 8.97269 23.3432 8.82406 23.5328 8.74587C23.8665 8.64444 24.2262 8.67387 24.539 8.82819Z" fill="white"/>
<path d="M53.9154 5.19689C51.9336 5.56582 50.8847 5.80669 48.9425 6.13598C48.3418 6.28549 47.7137 6.28549 47.1131 6.13598C46.7045 5.99878 46.2746 5.71827 45.8691 5.9134C45.7193 5.99726 45.5933 6.11795 45.5032 6.26404C45.3026 6.55551 45.1801 6.8936 45.1475 7.24594C45.115 7.59828 45.1734 7.95309 45.3172 8.27639C45.4309 8.44911 45.4962 8.64917 45.5062 8.85571C45.4758 9.00922 45.4135 9.15464 45.3233 9.28257C45.065 9.7285 44.8777 10.212 44.7684 10.7156C44.7333 10.835 44.7333 10.962 44.7684 11.0815C44.8214 11.2041 44.9166 11.3036 45.0367 11.362C45.6648 11.7279 46.4941 11.6456 47.2167 11.3925C47.9394 11.1394 48.6071 10.74 49.3267 10.4778C51.3451 9.73383 53.0861 9.83749 55.196 9.53564C55.8596 9.50016 56.5227 9.61156 57.1382 9.86188C57.4431 10.0113 57.6718 10.3009 57.995 10.426C58.1996 10.488 58.4156 10.5029 58.6268 10.4696C58.838 10.4364 59.039 10.3558 59.2146 10.2339C59.5725 9.98372 59.8911 9.68159 60.1598 9.33745L60.8367 8.55385C60.8858 8.50417 60.9261 8.44642 60.9556 8.38311C61.041 8.16053 60.8459 7.95625 60.7208 7.77331C60.3824 7.26107 60.5318 6.5537 60.5592 5.94389C60.5989 4.97736 60.2879 3.98033 59.5439 3.39492C59.1533 3.09492 58.6734 2.93459 58.1808 2.93957C57.6883 2.94454 57.2117 3.11453 56.8272 3.42236C56.5041 3.70592 56.2815 4.09009 55.943 4.35536C55.4095 4.75478 54.8911 4.94992 53.9154 5.19689Z" fill="white"/>
<path d="M41.457 17.5667C40.7253 16.9721 39.6673 17.1977 38.7526 17.3868C36.3652 17.8838 33.8955 17.9081 31.4349 17.9325C28.8036 17.96 26.1601 17.9844 23.5532 17.5697C23.4105 17.5392 23.263 17.5392 23.1202 17.5697C22.6141 17.71 22.6812 18.4265 22.7574 18.9479C22.835 19.4901 22.805 20.0424 22.669 20.573C22.5165 21.1828 22.2391 21.8444 22.5836 22.3658C22.7154 22.5337 22.8871 22.666 23.0831 22.7507C23.279 22.8354 23.493 22.8697 23.7057 22.8506C24.1207 22.8058 24.5297 22.7158 24.9253 22.5823C27.4407 21.9146 30.1238 22.686 32.7338 22.6036C34.9779 22.5305 37.3256 21.8353 39.4051 22.7226C39.6543 22.8551 39.9245 22.9438 40.2039 22.9848C40.4421 22.9929 40.6777 22.9337 40.8838 22.814C41.1431 22.6701 41.3635 22.4653 41.526 22.2172C41.6886 21.9692 41.7884 21.6853 41.8168 21.3901C41.8748 20.7803 41.6186 20.1705 41.457 19.5607C41.2954 18.9509 41.8687 17.8746 41.457 17.5667Z" fill="white"/>
<path d="M43.747 17.4751C43.8049 17.0879 44.2683 16.7769 44.866 16.6976C45.5109 16.6184 46.1632 16.6184 46.8082 16.6976C47.3405 16.7311 47.856 16.8967 48.3083 17.1794C48.8327 17.5697 48.8602 18.1337 48.7992 18.6429C48.6216 19.7444 48.3146 20.821 47.8845 21.8505C47.8263 22.0451 47.7288 22.2257 47.5979 22.381C47.0948 22.9359 45.863 23.0244 44.8903 22.8445C44.5483 22.8126 44.224 22.6776 43.9604 22.4572C43.6951 22.1523 43.9208 21.7925 44.0854 21.4694C44.2833 21.1019 44.3985 20.6956 44.4227 20.279C44.4469 19.8624 44.3797 19.4455 44.2257 19.0576C44.0511 18.6975 43.8994 18.3268 43.7714 17.9477C43.7329 17.7932 43.7246 17.6328 43.747 17.4751Z" fill="white"/>
<path d="M23.2972 25.0031C22.8154 24.9879 22.602 25.866 22.7636 26.2959C22.8368 26.4849 22.9587 26.6435 23.0167 26.8356C23.2149 27.5277 22.5014 28.165 22.5105 28.8937C22.5302 29.172 22.6418 29.436 22.8278 29.644C23.0138 29.8521 23.2636 29.9925 23.5381 30.0432C24.0472 30.1499 24.5686 30.0005 25.0809 29.9181C25.8519 29.817 26.6307 29.7874 27.4073 29.8297L35.9079 30.0249C36.7068 30.0462 37.5727 30.0919 38.1764 30.6956C38.3868 30.906 38.5667 31.1865 38.8319 31.2872C39.0167 31.3307 39.2107 31.3108 39.3828 31.2306C39.5548 31.1504 39.6948 31.0146 39.7802 30.845C39.9769 30.4806 40.1031 30.0824 40.1522 29.6712L40.4357 28.1162C40.5394 27.5582 40.6309 26.9301 40.3503 26.4606C40.2167 26.2618 40.0304 26.1042 39.8124 26.0051C39.5944 25.906 39.3531 25.8695 39.1155 25.8995C38.652 25.927 38.2008 26.1008 37.7465 26.1648C37.1343 26.2163 36.5179 26.1773 35.9171 26.0489C31.8009 25.3964 27.4499 25.1556 23.2972 25.0031Z" fill="white"/>
<path d="M36.8631 38.0865C36.7676 38.0384 36.6644 38.0075 36.5582 37.995C32.006 37.6901 27.3258 37.1626 22.7766 36.8577C22.6325 36.8682 22.4878 36.849 22.3514 36.8013C22.2151 36.7536 22.09 36.6783 21.9839 36.5803C21.7735 36.3089 21.9198 35.9095 22.1302 35.6259C22.375 35.3719 22.5585 35.0653 22.6669 34.7295C22.7339 34.2996 22.4199 33.9124 22.3101 33.5099C22.2563 33.2927 22.2541 33.0659 22.3039 32.8477C22.3537 32.6295 22.454 32.4261 22.5967 32.2537C22.6823 32.1361 22.8029 32.0486 22.9413 32.0037C23.1325 31.9789 23.3268 32.0152 23.4962 32.1074C26.8878 33.5535 30.5451 34.2723 34.2318 34.2173C34.8202 34.2173 34.9117 34.2813 35.302 34.0892C35.7768 33.8293 36.3327 33.7596 36.857 33.8941C37.0151 33.9393 37.1578 34.0272 37.2691 34.1483C37.3805 34.2693 37.4563 34.4188 37.4881 34.5801C37.6955 35.6046 37.8693 36.7358 37.4576 37.745C37.3997 37.8853 37.3875 37.9859 37.2503 38.0651C37.1905 38.0945 37.1254 38.1115 37.0589 38.1151C36.9923 38.1188 36.9258 38.1091 36.8631 38.0865Z" fill="white"/>
<path d="M44.7965 26.8417C44.4093 26.671 44.0037 26.7807 43.5769 26.7502C43.15 26.7197 42.6622 26.86 42.5128 27.1771C42.4419 27.3721 42.4199 27.5815 42.4487 27.7869C42.4774 28.5802 42.2331 29.3594 41.7566 29.9944C41.5747 30.2137 41.4105 30.4472 41.2657 30.6926C41.1976 30.8147 41.1619 30.9522 41.1619 31.092C41.1619 31.2319 41.1976 31.3693 41.2657 31.4915C41.4095 31.6869 41.6019 31.8414 41.8237 31.9397C42.0698 32.0795 42.3435 32.1638 42.6256 32.1866C42.9849 32.1938 43.3339 32.0666 43.6043 31.8299C43.8371 31.6135 44.031 31.3588 44.1775 31.0768C44.6851 30.2069 45.1216 29.2973 45.4825 28.3571C45.5938 28.1107 45.6268 27.8361 45.577 27.5704C45.5288 27.3878 45.4299 27.2225 45.2918 27.0936C45.1537 26.9647 44.982 26.8773 44.7965 26.8417Z" fill="white"/>
<path d="M20.0659 7.2306L16.8309 8.27337C16.4201 8.3758 16.0342 8.56043 15.6967 8.81609C15.2485 9.21551 15.154 9.81007 15.0869 10.3589L14.6448 13.7738C14.5838 14.2433 14.6234 14.8592 15.1448 15.0086C15.3838 15.0548 15.6308 15.038 15.8613 14.9599C17.1785 14.6336 18.517 14.3013 19.6574 13.6457C19.9195 13.513 20.1487 13.3234 20.3281 13.0908C20.4402 12.9029 20.5177 12.6963 20.5568 12.481C20.9096 10.9818 21.0927 9.44763 21.1026 7.90748C21.1254 7.74001 21.1116 7.56959 21.0621 7.40798C21.0126 7.24637 20.9287 7.09742 20.816 6.97144C20.6239 7.02632 20.255 7.17267 20.0659 7.2306Z" fill="white"/>
<path d="M20.2149 14.4353C20.3567 14.5999 20.4506 14.8003 20.4863 15.0146C20.6173 15.8447 20.6846 16.6836 20.6875 17.524C20.6875 18.0667 20.6387 18.6796 19.7057 18.768C19.5536 18.7817 19.4005 18.7817 19.2484 18.768L15.8579 18.4631C15.7066 18.4549 15.5626 18.3958 15.4493 18.2954C15.0407 17.9173 15.4981 17.3807 15.5255 16.8776C15.5255 16.594 15.4097 16.2891 15.5255 16.033C15.6414 15.7769 15.989 15.6976 16.2756 15.6427C17.5858 15.3925 18.8373 14.8981 19.9649 14.1853C20.0613 14.2544 20.1458 14.3389 20.2149 14.4353Z" fill="white"/>
<path d="M20.1971 19.5607C19.2878 19.4393 18.3699 19.3934 17.453 19.4235C17.0928 19.4324 16.741 19.5342 16.4317 19.719C16.1224 19.9038 15.8661 20.1654 15.6876 20.4784C15.5447 20.8248 15.4691 21.1953 15.4651 21.57C15.3761 22.9159 15.368 24.266 15.4407 25.613C15.4264 25.8646 15.4996 26.1135 15.648 26.3173C15.8426 26.4863 16.0916 26.5794 16.3493 26.5795C17.3173 26.6853 18.295 26.6658 19.258 26.5216C19.6239 26.4667 20.0386 26.3539 20.2032 26.0215C20.2901 25.7675 20.2965 25.4927 20.2215 25.2349C19.8771 23.3602 19.8647 21.4396 20.1849 19.5607" fill="white"/>
<path d="M19.5473 28.5431C19.4855 28.3209 19.3536 28.1245 19.1712 27.9833C18.9888 27.8421 18.7656 27.7636 18.535 27.7595C17.7148 27.7382 17.0105 27.7229 16.1842 27.7595C16.0162 27.7705 15.8513 27.8096 15.6964 27.8754C15.5879 27.9225 15.4901 27.9911 15.4089 28.077C15.3276 28.163 15.2647 28.2645 15.2238 28.3754C14.8731 29.2901 14.9189 30.2933 14.9951 31.269L15.1048 33.0343C15.178 34.1503 15.2542 35.2906 15.6994 36.3151C16.1446 37.3395 17.044 38.239 18.1539 38.3701C18.3718 38.4121 18.5969 38.3971 18.8073 38.3266C19.0178 38.256 19.2065 38.1324 19.3552 37.9676C19.5396 37.6518 19.6207 37.2861 19.5869 36.9218L19.6296 29.5219C19.641 29.1935 19.6133 28.865 19.5473 28.5431Z" fill="white"/>
<path d="M12.278 9.82837C9.51554 10.2217 6.97876 12.2859 5.48169 14.6397C3.98462 16.9936 3.21932 19.7285 2.54243 22.4361C2.3229 23.3233 2.10643 24.238 2.2162 25.1466C2.37266 26.0879 2.75101 26.9784 3.31994 27.7444C5.25302 30.5891 8.19836 32.5649 11.0583 34.4675C11.1501 34.5439 11.2652 34.5869 11.3846 34.5894C11.595 34.5651 11.6895 34.315 11.7352 34.1077C13.4366 26.165 10.6681 17.7894 12.278 9.82837Z" fill="white"/>
<path d="M22.7088 7.1208C22.6788 7.12324 22.6489 7.11505 22.6243 7.09765C22.5998 7.08026 22.5822 7.05478 22.5745 7.02568C22.5669 6.99658 22.5697 6.96571 22.5826 6.93851C22.5954 6.9113 22.6174 6.88948 22.6447 6.87688C25.4529 5.5719 28.8068 3.96507 31.6698 3.17842C31.9502 3.0836 32.2466 3.04526 32.5419 3.06561C32.9011 3.14112 33.2331 3.31291 33.5023 3.5626C34.162 4.09357 34.7493 4.70859 35.2494 5.39201C35.3079 5.46835 35.3501 5.55596 35.3732 5.64936C35.3962 5.74275 35.3998 5.83991 35.3835 5.93473C35.3012 6.32806 34.9079 6.38294 34.5755 6.40123L22.7088 7.1208Z" fill="white"/>
</g>
<defs>
<clipPath id="clip0_576_835">
<rect width="42.174" height="78" fill="white" transform="translate(78 0.330566) rotate(90)"/>
</clipPath>
</defs>
</svg>
