<svg width="157" height="154" viewBox="0 0 157 154" fill="none" xmlns="http://www.w3.org/2000/svg">
<g clip-path="url(#clip0_572_1485)">
<path d="M8.03359 85.4029C4.59308 80.2094 16.3796 62.8922 20.0923 58.4568C27.7232 49.3531 40.1286 43.7693 51.3872 40.4341C73.1911 33.9827 98.0627 31.318 117.11 44.7766C128.733 52.9924 140.418 69.7221 143.642 83.1333C145.62 91.3427 138.786 95.518 130.821 96.4456C117.305 98.0079 102.238 97.8 88.5841 97.3199C70.4417 96.6908 52.4317 95.6455 34.2798 94.7182C25.0679 94.2504 13.9711 93.0232 8.03359 85.4029Z" fill="black"/>
<path d="M11.6053 84.9472C8.25177 79.821 20.81 63.7823 24.4676 59.4181C31.9804 50.4506 44.1825 44.9497 55.2544 41.6596C76.697 35.2827 100.173 35.5899 118.876 48.8072C130.319 56.8962 137.839 69.3974 140.991 82.5754C142.931 90.6542 142.109 91.8137 134.278 92.7313C120.997 94.2852 106.176 94.1032 92.7591 93.6427C74.9123 93.0401 57.2137 92.0337 39.3653 91.139C30.3113 90.6797 17.4803 92.4685 11.6053 84.9472Z" fill="#EE2400"/>
</g>
<defs>
<clipPath id="clip0_572_1485">
<rect width="119.308" height="101.143" fill="white" transform="translate(61.9238) rotate(37.7514)"/>
</clipPath>
</defs>
</svg>
