<svg width="157" height="154" viewBox="0 0 157 154" fill="none" xmlns="http://www.w3.org/2000/svg">
<g clip-path="url(#clip0_572_1463)">
<path d="M4.0335 82.4026C0.592987 77.209 16.3795 58.8918 20.0922 54.4564C27.7231 45.3527 40.1285 39.7689 51.3871 36.4337C73.191 29.9824 98.0626 29.3176 117.11 42.7762C128.733 50.992 140.418 69.7217 143.642 83.1329C145.62 91.3423 138.786 95.5176 130.821 96.4452C117.305 98.0075 102.238 97.7997 88.5841 97.3196C70.4416 96.6904 52.4316 95.6452 34.2797 94.7178C25.0678 94.25 9.97097 90.0228 4.0335 82.4026Z" fill="black"/>
<path d="M8.53597 81.5654C5.18244 76.4392 17.7407 60.4005 21.3982 56.0362C28.9111 47.0688 41.1132 41.5678 52.1851 38.2778C73.6277 31.9009 97.1038 32.2081 115.807 45.4253C127.25 53.5143 134.77 66.0155 137.922 79.1936C139.862 87.2724 139.04 88.4319 131.209 89.3495C117.927 90.9034 103.106 90.7213 89.6898 90.2609C71.843 89.6582 54.1443 88.6518 36.296 87.7572C27.242 87.2978 14.411 89.0867 8.53597 81.5654Z" fill="#FEB503"/>
</g>
<defs>
<clipPath id="clip0_572_1463">
<rect width="119.308" height="101.143" fill="white" transform="translate(61.9238) rotate(37.7514)"/>
</clipPath>
</defs>
</svg>
